P1
# This is a truth machine program for 4bod
12 256


110011100000 #bra e
101100000000 #flag 0
001100010000 #ldi 1
001000110000 #sta 3
001000100000 #sta 2
010000000000 #ldkeys
001000010000 #sta 1
001110000000 #ldi 8
110100010000 #deq 1
110000100000 #bra 2
001100100000 #ldi 2
001000100000 #sta 2
001101000000 #ldi 4
110100010000 #deq 1
110000100000 #bra 2
001000100000 #sta 2

110000100000 #bra 2
000000000000
000000000000
000000000000
000000000000
000000000000
000000000000
000000000000
000000000000
000000000000
000000000000
000000000000
000000000000
000000000000
000000000000
000000000000
 
101100010000 #flag 1
001101000000 #ldi 4
001011100000 #sta e
001100110000 #ldi 3
001001110000 #sta 7
001100010000 #ldi 1
001010000000 #sta 8
101001111000 #flip 7 8
101001110111 #flip 7 7
101010001000 #flip 8 8
101010000111 #flip 8 7
001100100000 #ldi 2
001001100000 #sta 6
101001101000 #flip 6 8
101001110110 #flip 7 6
101010000110 #flip 8 6

001101000000 #ldi 4
001001100000 #sta 6
101001110110 #flip 7 6
101010000110 #flip 8 6
001101010000 #ldi 5
001001100000 #sta 6
101001110110 #flip 7 6
101010000110 #flip 8 6
001100100000 #ldi 2
001001110000 #sta 7
101001110110 #flip 7 6
110011100000 #bra e
000000000000
000000000000
000000000000
000000000000

000000000000
000000000000
000000000000
000000000000
000000000000
000000000000
000000000000
000000000000
000000000000
000000000000
000000000000
000000000000
000000000000
000000000000
000000000000
000000000000

101100100000 #flag 2
001100100000 #ldi 2
001011100000 #sta e
001001110000 #sta 7
001100110000 #ldi 3
001000100000 #sta 2
000000000000 #nop
101000110111 #flip 3 7
101000110010 #flip 3 2
010100000000 #inc
001001110000 #sta 7
101000110111 #flip 3 7
010100000000 #inc
001001110000 #sta 7
101000110111 #flip 3 7
010100000000 #inc

001001110000 #sta 7
101000110111 #flip 3 7
000100110000 #lda 3
010100000000 #inc
110100000000 #deq 0
110000100000 #bra 2
010100000000 #inc
001000110000 #sta 3
001101000000 #ldi 4
001000100000 #sta 2
110000100000 #bra 2
000000000000
101100110000 #flag 3
001101000000 #ldi refresh
001011100000 #sta e
110011100000 #bra e

000000000000
000000000000
000000000000
000000000000
000000000000
000000000000
000000000000
000000000000
000000000000
000000000000
000000000000
000000000000
000000000000
000000000000
000000000000
000000000000

000000000000
000000000000
000000000000
000000000000
000000000000
000000000000
000000000000
000000000000
000000000000
000000000000
000000000000
000000000000
000000000000
000000000000
000000000000
000000000000

000000000000
000000000000
000000000000
000000000000
000000000000
000000000000
000000000000
000000000000
000000000000
000000000000
000000000000
000000000000
000000000000
000000000000
000000000000
000000000000

000000000000
000000000000
000000000000
000000000000
000000000000
000000000000
000000000000
000000000000
000000000000
000000000000
000000000000
000000000000
000000000000
000000000000
000000000000
000000000000

000000000000
000000000000
000000000000
000000000000
000000000000
000000000000
000000000000
000000000000
000000000000
000000000000
000000000000
000000000000
000000000000
000000000000
000000000000
000000000000

000000000000
000000000000
000000000000
000000000000
000000000000
000000000000
000000000000
000000000000
000000000000
000000000000
000000000000
000000000000
000000000000
000000000000
000000000000
000000000000

000000000000
000000000000
000000000000
000000000000
000000000000
000000000000
000000000000
000000000000
000000000000
000000000000
000000000000
000000000000
000000000000
000000000000
000000000000
000000000000

000000000000
000000000000
000000000000
000000000000
000000000000
000000000000
000000000000
000000000000
000000000000
000000000000
000000000000
000000000000
000000000000
000000000000
000000000000
000000000000

000000000000
000000000000
000000000000
000000000000
000000000000
000000000000
000000000000
000000000000
000000000000
000000000000
000000000000
000000000000
000000000000
000000000000
000000000000
101101000000 #flag 4